<?xml version="1.0" standalone="no"?><!DOCTYPE svg PUBLIC "-//W3C//DTD SVG 1.1//EN"
        "http://www.w3.org/Graphics/SVG/1.1/DTD/svg11.dtd">
<svg t="1506943248299" class="icon" style="" viewBox="0 0 1024 1024" version="1.1" xmlns="http://www.w3.org/2000/svg"
     p-id="5281" xmlns:xlink="http://www.w3.org/1999/xlink">
    <defs>
        <style type="text/css"></style>
    </defs>
    <path d="M874.030645 756.536406C850.799382 771.131963 825.013897 775.997149 798.255375 776.726927c-24.569189 0.608148-48.895118 0.364889-72.734529-7.541038-17.514669-5.838223-30.529041-15.933484-35.150968-34.056301-8.514075-33.083264-16.784891-66.288158-23.961041-99.736311-25.177337-116.764461-49.868155-233.650552-75.045492-350.415014-1.581185-7.419408-4.621927-14.838817-8.514075-21.285188-6.689631-11.068298-19.217484-14.230669-29.434375-6.446371-7.419408 5.716593-14.473928 13.379261-18.609336 21.771707-25.177337 50.476304-49.503266 101.317496-74.072455 151.915429-3.648889 7.541038-7.784297 14.838817-11.798076 22.136596-11.433187 20.920299-42.692006 22.866374-55.463119 5.108445-9.730372-13.62252-19.704003-27.245041-27.366671-42.083858-23.474522-45.611118-45.611118-91.952013-68.720751-137.80639-3.52726-7.05452-8.392446-13.987409-14.352298-19.095855-13.987409-12.284594-33.204894-7.541038-38.799857 10.095261-6.324742 19.704003-11.189928 40.016154-15.325336 60.328305-24.569189 118.953795-48.651859 237.90759-73.221048 356.861385-0.851408 4.013778-3.648889 7.662668-5.594964 11.554816 0-49.138377 0-98.276755 0-147.415132 0.364889-4.986816 1.094667-9.973631 1.094667-14.960447C151.185652 443.826583 150.820763 338.252049 150.942392 246.300036l0 0c166.997506 0 352.847607 0 519.845112 0 3.892149 0 0.729778-0.243259 5.716593 0 0 58.62549 2.067704 117.494239 2.067704 176.606248 37.218672-5.473334 75.8969-15.082076 113.358831-20.67704 0 29.069486 0 58.382231 0 86.600309 38.799857 0 52.300748 0 69.328899 0 0 22.258225 0 47.192303 0 69.328899-24.934078 0-43.908303 0-69.328899 0 0 28.339708-4.135408 54.490082-3.162371 81.978382 0.608148 16.298373 2.675852 32.840005 6.446371 48.773489 5.351704 22.623114 16.541632 29.677634 39.772895 27.60993 8.270816-0.729778 16.298373-2.675852 24.934078-4.135408 4.743556 14.352298 9.365483 28.218078 13.86578 42.205488C874.030645 755.19848 874.030645 755.928258 874.030645 756.536406z"
          p-id="5282" fill="#2880B3"></path>
    <path d="M156.780615 777.821594c12.041335-61.058083 25.542226-122.967573 37.82682-183.174249 2.067704-10.33852 5.959853-20.67704 10.581779-30.285782 7.662668-15.933484 24.08267-18.974225 34.786079-4.986816 11.676446 15.325336 20.433781 32.961634 30.042523 49.746526 11.676446 20.433781 21.771707 41.597339 34.42119 61.301342 9.000594 13.987409 22.379855 24.447559 40.624302 19.582373 7.541038-2.067704 16.176743-6.93289 20.312151-13.257632 10.825039-16.784891 19.947262-34.786079 28.947856-52.787267 9.487112-18.852595 17.514669-38.434969 27.123411-57.287564 3.52726-7.05452 8.878964-13.62252 14.717187-18.974225 12.771113-11.676446 29.434375-8.270816 34.42119 8.027557 7.784297 25.663856 13.987409 51.81423 19.460744 77.964604 9.365483 45.367858 21.771707 98.276755 30.529041 143.766243 0 0-0.12163-2.432593 0 0C401.256206 777.821594 276.464188 777.821594 156.780615 777.821594z"
          p-id="5283" fill="#2880B3"></path>
</svg>