<?xml version="1.0" standalone="no"?><!DOCTYPE svg PUBLIC "-//W3C//DTD SVG 1.1//EN"
        "http://www.w3.org/Graphics/SVG/1.1/DTD/svg11.dtd">
<svg t="1506259900151" class="icon" style="" viewBox="0 0 1077 1024" version="1.1" xmlns="http://www.w3.org/2000/svg"
     p-id="1961" xmlns:xlink="http://www.w3.org/1999/xlink">
    <defs>
        <style type="text/css"></style>
    </defs>
    <path d="M796.721951 594.419512 796.721951 674.341463 796.721951 756.760976 716.8 756.760976 634.380488 756.760976 554.458537 756.760976 472.039024 756.760976 389.619512 756.760976 309.697561 756.760976 309.697561 674.341463 309.697561 594.419512 309.697561 512 309.697561 429.580488 309.697561 349.658537 389.619512 349.658537 472.039024 349.658537 554.458537 349.658537 634.380488 349.658537 634.380488 429.580488 634.380488 512 634.380488 594.419512 554.458537 594.419512 472.039024 594.419512 472.039024 512 554.458537 512 554.458537 429.580488 472.039024 429.580488 389.619512 429.580488 389.619512 512 389.619512 594.419512 389.619512 674.341463 472.039024 674.341463 554.458537 674.341463 634.380488 674.341463 716.8 674.341463 716.8 594.419512 716.8 512 716.8 429.580488 716.8 349.658537 716.8 267.239024 634.380488 267.239024 554.458537 267.239024 472.039024 267.239024 389.619512 267.239024 309.697561 267.239024 227.278049 267.239024 227.278049 349.658537 227.278049 429.580488 227.278049 512 227.278049 594.419512 227.278049 674.341463 227.278049 756.760976 227.278049 839.180488 309.697561 839.180488 389.619512 839.180488 472.039024 839.180488 554.458537 839.180488 634.380488 839.180488 716.8 839.180488 796.721951 839.180488 879.141463 839.180488 879.141463 756.760976 879.141463 674.341463 879.141463 594.419512Z"
          p-id="1962" style="fill:#fafafa"></path>
    <path d="M796.721951 267.239024l82.419512 0 0 82.419512-82.419512 0 0-82.419512Z" p-id="1963" style="fill:#fafafa"></path>
    <path d="M796.721951 442.068293l82.419512 0 0 82.419512-82.419512 0 0-82.419512Z" p-id="1964" style="fill:#fafafa"></path>
</svg>